<svg xmlns="http://www.w3.org/2000/svg" width="460" height="460">
<rect width="100%" height="100%" fill="white" />
<rect x="30" y="30" width="80" height="80" fill="white" />
<rect x="110" y="30" width="80" height="80" fill="white" />
<rect x="190" y="30" width="80" height="80" fill="white" />
<rect x="270" y="30" width="80" height="80" fill="white" />
<rect x="350" y="30" width="80" height="80" fill="white" />
<rect x="30" y="110" width="80" height="80" fill="#FFD700" />
<rect x="110" y="110" width="80" height="80" fill="#FFD700" />
<rect x="190" y="110" width="80" height="80" fill="#FFD700" />
<rect x="270" y="110" width="80" height="80" fill="#FFD700" />
<rect x="350" y="110" width="80" height="80" fill="white" />
<rect x="30" y="190" width="80" height="80" fill="#FFD700" />
<rect x="110" y="190" width="80" height="80" fill="#FFD700" />
<rect x="190" y="190" width="80" height="80" fill="#FFD700" />
<rect x="270" y="190" width="80" height="80" fill="#FFD700" />
<rect x="350" y="190" width="80" height="80" fill="white" />
<rect x="30" y="270" width="80" height="80" fill="white" />
<rect x="110" y="270" width="80" height="80" fill="#FFD700" />
<rect x="190" y="270" width="80" height="80" fill="#FFD700" />
<rect x="270" y="270" width="80" height="80" fill="white" />
<rect x="350" y="270" width="80" height="80" fill="white" />
<rect x="30" y="350" width="80" height="80" fill="white" />
<rect x="110" y="350" width="80" height="80" fill="white" />
<rect x="190" y="350" width="80" height="80" fill="#FFD700" />
<rect x="270" y="350" width="80" height="80" fill="#FFD700" />
<rect x="350" y="350" width="80" height="80" fill="white" />
<rect x="30" y="30" width="400" height="400" fill="none" stroke="black" stroke-width="3" />
<line x1="110" y1="30" x2="110" y2="110" stroke="black" stroke-width="2" />
<line x1="30" y1="110" x2="110" y2="110" stroke="black" stroke-width="2" />
<line x1="190" y1="30" x2="190" y2="110" stroke="black" stroke-width="2" />
<line x1="110" y1="110" x2="190" y2="110" stroke="black" stroke-width="2" />
<line x1="270" y1="30" x2="270" y2="110" stroke="black" stroke-width="2" />
<line x1="190" y1="110" x2="270" y2="110" stroke="black" stroke-width="2" />
<line x1="350" y1="30" x2="350" y2="110" stroke="black" stroke-width="2" />
<line x1="270" y1="110" x2="350" y2="110" stroke="black" stroke-width="2" />
<line x1="350" y1="110" x2="430" y2="110" stroke="black" stroke-width="2" />
<line x1="110" y1="110" x2="110" y2="190" stroke="black" stroke-width="2" />
<line x1="30" y1="190" x2="110" y2="190" stroke="black" stroke-width="2" />
<line x1="190" y1="110" x2="190" y2="190" stroke="black" stroke-width="2" />
<line x1="110" y1="190" x2="190" y2="190" stroke="black" stroke-width="2" />
<line x1="270" y1="110" x2="270" y2="190" stroke="black" stroke-width="2" />
<line x1="190" y1="190" x2="270" y2="190" stroke="black" stroke-width="2" />
<line x1="350" y1="110" x2="350" y2="190" stroke="black" stroke-width="2" />
<line x1="350" y1="190" x2="430" y2="190" stroke="black" stroke-width="2" />
<line x1="30" y1="270" x2="110" y2="270" stroke="black" stroke-width="2" />
<line x1="190" y1="190" x2="190" y2="270" stroke="black" stroke-width="2" />
<line x1="110" y1="270" x2="190" y2="270" stroke="black" stroke-width="2" />
<line x1="270" y1="190" x2="270" y2="270" stroke="black" stroke-width="2" />
<line x1="190" y1="270" x2="270" y2="270" stroke="black" stroke-width="2" />
<line x1="350" y1="190" x2="350" y2="270" stroke="black" stroke-width="2" />
<line x1="270" y1="270" x2="350" y2="270" stroke="black" stroke-width="2" />
<line x1="350" y1="270" x2="430" y2="270" stroke="black" stroke-width="2" />
<line x1="110" y1="270" x2="110" y2="350" stroke="black" stroke-width="2" />
<line x1="30" y1="350" x2="110" y2="350" stroke="black" stroke-width="2" />
<line x1="110" y1="350" x2="190" y2="350" stroke="black" stroke-width="2" />
<line x1="270" y1="270" x2="270" y2="350" stroke="black" stroke-width="2" />
<line x1="350" y1="270" x2="350" y2="350" stroke="black" stroke-width="2" />
<line x1="270" y1="350" x2="350" y2="350" stroke="black" stroke-width="2" />
<line x1="350" y1="350" x2="430" y2="350" stroke="black" stroke-width="2" />
<line x1="110" y1="350" x2="110" y2="430" stroke="black" stroke-width="2" />
<line x1="190" y1="350" x2="190" y2="430" stroke="black" stroke-width="2" />
<line x1="270" y1="350" x2="270" y2="430" stroke="black" stroke-width="2" />
<line x1="350" y1="350" x2="350" y2="430" stroke="black" stroke-width="2" />
<text x="70" y="70" font-family="Arial" font-size="24" text-anchor="middle" dominant-baseline="middle" fill="gray">21</text>
<text x="150" y="70" font-family="Arial" font-size="24" text-anchor="middle" dominant-baseline="middle" fill="gray">22</text>
<text x="230" y="70" font-family="Arial" font-size="24" text-anchor="middle" dominant-baseline="middle" fill="gray">23</text>
<text x="310" y="70" font-family="Arial" font-size="24" text-anchor="middle" dominant-baseline="middle" fill="gray">24</text>
<text x="390" y="70" font-family="Arial" font-size="24" text-anchor="middle" dominant-baseline="middle" fill="gray">25</text>
<text x="70" y="150" font-family="Arial" font-size="24" text-anchor="middle" dominant-baseline="middle" fill="gray">16</text>
<text x="150" y="150" font-family="Arial" font-size="24" text-anchor="middle" dominant-baseline="middle" fill="gray">17</text>
<text x="230" y="150" font-family="Arial" font-size="24" text-anchor="middle" dominant-baseline="middle" fill="gray">18</text>
<text x="310" y="150" font-family="Arial" font-size="24" text-anchor="middle" dominant-baseline="middle" fill="gray">19</text>
<text x="390" y="150" font-family="Arial" font-size="24" text-anchor="middle" dominant-baseline="middle" fill="gray">20</text>
<text x="70" y="230" font-family="Arial" font-size="24" text-anchor="middle" dominant-baseline="middle" fill="gray">11</text>
<text x="150" y="230" font-family="Arial" font-size="24" text-anchor="middle" dominant-baseline="middle" fill="gray">12</text>
<text x="230" y="230" font-family="Arial" font-size="24" text-anchor="middle" dominant-baseline="middle" fill="gray">13</text>
<text x="310" y="230" font-family="Arial" font-size="24" text-anchor="middle" dominant-baseline="middle" fill="gray">14</text>
<text x="390" y="230" font-family="Arial" font-size="24" text-anchor="middle" dominant-baseline="middle" fill="gray">15</text>
<text x="70" y="310" font-family="Arial" font-size="24" text-anchor="middle" dominant-baseline="middle" fill="gray">6</text>
<text x="150" y="310" font-family="Arial" font-size="24" text-anchor="middle" dominant-baseline="middle" fill="gray">7</text>
<text x="230" y="310" font-family="Arial" font-size="24" text-anchor="middle" dominant-baseline="middle" fill="gray">8</text>
<text x="310" y="310" font-family="Arial" font-size="24" text-anchor="middle" dominant-baseline="middle" fill="gray">9</text>
<text x="390" y="310" font-family="Arial" font-size="24" text-anchor="middle" dominant-baseline="middle" fill="gray">10</text>
<text x="70" y="390" font-family="Arial" font-size="24" text-anchor="middle" dominant-baseline="middle" fill="gray">1</text>
<text x="150" y="390" font-family="Arial" font-size="24" text-anchor="middle" dominant-baseline="middle" fill="gray">2</text>
<text x="230" y="390" font-family="Arial" font-size="24" text-anchor="middle" dominant-baseline="middle" fill="gray">3</text>
<text x="310" y="390" font-family="Arial" font-size="24" text-anchor="middle" dominant-baseline="middle" fill="gray">4</text>
<text x="390" y="390" font-family="Arial" font-size="24" text-anchor="middle" dominant-baseline="middle" fill="gray">5</text>
</svg>
